<?xml version="1.0" standalone="no"?>
<!DOCTYPE svg PUBLIC "-//W3C//DTD SVG 20010904//EN"
 "http://www.w3.org/TR/2001/REC-SVG-20010904/DTD/svg10.dtd">
<svg version="1.0" xmlns="http://www.w3.org/2000/svg"
 width="1513.000000pt" height="1513.000000pt" viewBox="0 0 1513.000000 1513.000000"
 preserveAspectRatio="xMidYMid meet">
<metadata>
Created by potrace 1.11, written by Peter Selinger 2001-2013
</metadata>
<g transform="translate(0.000000,1513.000000) scale(0.100000,-0.100000)"
fill="#000000" stroke="none">
<path d="M10465 11043 c-223 -25 -470 -118 -666 -250 -117 -78 -166 -119 -285
-238 -212 -212 -351 -442 -555 -922 -23 -54 -50 -116 -60 -138 -32 -70 -146
-349 -289 -705 -176 -439 -206 -512 -242 -585 -157 -314 -357 -480 -638 -528
-345 -60 -691 117 -982 503 -51 68 -218 325 -218 336 0 3 -9 17 -19 32 -10 15
-52 79 -92 142 -39 63 -93 147 -118 186 -25 38 -50 78 -56 87 -24 39 -223 329
-279 406 -178 244 -353 437 -526 581 -182 150 -373 241 -585 276 -62 10 -360
13 -402 4 -58 -13 -152 -31 -160 -32 -22 -1 -187 -65 -253 -97 -245 -122 -455
-318 -632 -591 -70 -108 -147 -251 -192 -360 -20 -47 -40 -93 -46 -102 -5 -10
-10 -23 -10 -29 0 -6 -6 -25 -14 -42 -14 -29 -83 -232 -91 -267 -2 -8 -24 -94
-48 -190 -25 -96 -57 -242 -72 -325 -15 -82 -28 -157 -30 -165 -1 -8 -6 -40
-10 -70 -4 -30 -9 -63 -10 -72 -2 -9 -7 -48 -10 -85 -4 -37 -9 -76 -11 -85
-25 -137 -24 -847 2 -981 2 -11 6 -46 8 -76 3 -31 7 -72 10 -91 3 -19 8 -53
11 -75 3 -22 8 -53 10 -70 3 -16 7 -41 9 -55 25 -158 86 -448 132 -630 25 -96
47 -185 50 -197 8 -38 111 -374 144 -468 17 -49 33 -97 35 -105 9 -41 123
-328 166 -419 61 -130 161 -282 227 -343 113 -106 283 -154 450 -128 86 14
154 51 222 119 91 92 131 202 131 359 0 101 -5 149 -27 252 -3 14 -7 34 -9 46
-20 91 -82 311 -150 529 -51 164 -155 503 -160 525 -2 8 -22 85 -44 170 -22
85 -43 170 -46 189 -3 19 -8 37 -10 41 -2 4 -9 35 -14 71 -6 35 -13 75 -16 88
-18 93 -27 359 -14 438 15 94 20 114 36 156 49 124 115 184 243 220 128 37
229 1 355 -127 44 -45 101 -110 126 -146 43 -60 163 -256 221 -360 14 -25 54
-94 88 -155 35 -60 71 -124 80 -141 22 -37 165 -290 185 -324 158 -273 288
-498 295 -510 5 -8 50 -83 99 -167 109 -185 176 -286 252 -378 294 -360 670
-577 1099 -633 73 -9 397 -9 485 1 325 36 589 117 795 244 41 26 77 49 80 52
3 3 21 17 40 31 183 128 380 378 498 630 87 184 110 248 237 660 42 135 80
256 85 270 5 14 36 113 70 220 34 107 65 204 70 215 4 11 17 47 28 80 253 743
480 1189 739 1451 223 225 436 292 638 203 50 -22 128 -79 163 -118 36 -41 89
-140 111 -211 28 -86 29 -91 50 -265 8 -65 6 -620 -3 -675 -2 -14 -7 -72 -11
-130 -11 -156 -20 -264 -30 -347 -2 -15 -7 -62 -10 -103 -4 -41 -9 -84 -11
-95 -25 -132 -36 -455 -19 -567 46 -299 209 -462 471 -473 87 -3 235 46 306
103 186 146 283 347 342 702 3 19 8 44 10 56 2 12 7 45 11 75 3 30 8 65 10 79
8 53 22 161 30 240 3 30 8 71 10 90 9 73 25 286 30 400 5 87 5 579 1 660 -14
250 -19 324 -32 455 -3 33 -7 78 -9 100 -2 22 -6 63 -10 90 -3 28 -8 64 -10
80 -6 52 -17 129 -21 150 -2 11 -7 40 -10 65 -3 25 -7 52 -9 60 -2 8 -7 31
-10 50 -40 248 -178 771 -250 945 -7 17 -31 80 -55 140 -219 565 -551 927
-965 1050 -104 32 -325 50 -440 38z"/>
</g>
</svg>
